<svg id="Layer_1" xmlns="http://www.w3.org/2000/svg" xmlns:xlink="http://www.w3.org/1999/xlink" viewBox="0 0 1920 506" width="1920" height="506"><style>.st0{fill:url(#SVGID_1_)}.st1{clip-path:url(#SVGID_5_)}.st2{fill:#a7e4ec}.st3{fill:#4acbe1}.st4{fill:#39c2db}.st5{fill:#1fb5d2}.st6{fill:#d0eaed}.st7{fill:#11accd}.st8{fill:#f0f1f2}.st9{opacity:.6}.st10{fill:#1499af}.st11{opacity:.32}.st12{fill:#085566}</style><title>mountains-1_browse</title><linearGradient id="SVGID_1_" gradientUnits="userSpaceOnUse" x1="960" y1="-.07" x2="960" y2="505.93" gradientTransform="matrix(1 0 0 -1 0 506)"><stop offset="0" stop-color="#63d9ea"/><stop offset=".36" stop-color="#61d9e9"/><stop offset=".53" stop-color="#59d8e6"/><stop offset=".67" stop-color="#4cd7e0"/><stop offset=".79" stop-color="#39d6d8"/><stop offset=".9" stop-color="#21d4ce"/><stop offset=".99" stop-color="#04d1c2"/><stop offset="1" stop-color="#01d1c1"/></linearGradient><path class="st0" d="M0 .1h1920v506H0z"/><g id="art"><defs><path id="SVGID_2_" d="M0-647h1918.9v447.8H0z"/></defs><clipPath id="SVGID_3_"><use xlink:href="#SVGID_2_" overflow="visible"/></clipPath><defs><path id="SVGID_4_" d="M0 58.6h1920v447.5H0z"/></defs><clipPath id="SVGID_5_"><use xlink:href="#SVGID_4_" overflow="visible"/></clipPath><g class="st1"><path class="st2" d="M495.4 155.3h-7.8c-1.5 0-2.7-1.2-2.7-2.7 0-1.5 1.2-2.7 2.7-2.7h-.2c4.7 0 8.5-3.8 8.5-8.5s-3.8-8.5-8.5-8.5h-53.1c-4.7 0-8.5 3.8-8.5 8.5s3.8 8.5 8.5 8.5h1.3c1.5 0 2.7 1.2 2.7 2.7 0 1.5-1.2 2.7-2.7 2.7h-33.3c-5.2-.2-9.6 3.9-9.7 9.1-.2 5.2 3.9 9.6 9.1 9.7h93.8c5.2.2 9.6-3.9 9.7-9.1.2-5.2-3.9-9.6-9.1-9.7h-.7z"/><path class="st3" d="M493.7 683.7h600.9L783.9 341.1z"/><path class="st3" d="M688.5 623.4h463l-239.4-264z"/><path class="st3" d="M741 643.6h463l-239.4-264z"/><path class="st4" d="M818 685.9h600.9l-310.7-342.6z"/><path class="st4" d="M1011 614.8h600.9l-310.7-342.6zm-615.6 56.9h600.8L685.6 329.1z"/><path class="st2" d="M720.9 368.1c-5.7 0-5.7 8.7-11.4 8.7s-5.7-8.7-11.4-8.7-5.7 8.7-11.4 8.7-5.7-8.7-11.4-8.7-5.7 8.7-11.4 8.7-5.7-8.7-11.4-8.7l33-39 35.4 39z"/><path class="st4" d="M228.2 560.1h600.9L518.5 217.5z"/><path class="st5" d="M99.3 483.4h600.9L389.5 140.8z"/><path class="st6" d="M452.2 210c-10.1 0-10.1 15.5-20.2 15.5S421.9 210 411.8 210s-10.1 15.5-20.2 15.5-10.2-15.5-20.3-15.5-10.1 15.5-20.2 15.5S341 210 330.9 210l58.6-69.2 62.7 69.2z"/><path class="st7" d="M-68.6 521.7h600.9L221.6 179.1z"/><path class="st8" d="M258.5 219.9c-6 0-6 9.1-11.9 9.1s-6-9.1-11.9-9.1-6 9.1-11.9 9.1-6-9.1-11.9-9.1-6 9.1-11.9 9.1-6-9.1-11.9-9.1l34.5-40.8 36.9 40.8z"/><path class="st7" d="M-165.4 557h600.9L124.8 214.4z"/><path class="st5" d="M1090.8 571.6h600.9L1381 229z"/><path class="st6" d="M1415.7 267.3c-5.6 0-5.6 8.6-11.2 8.6s-5.6-8.6-11.2-8.6-5.6 8.6-11.2 8.6-5.6-8.6-11.2-8.6-5.6 8.6-11.2 8.6-5.6-8.6-11.2-8.6L1381 229l34.7 38.3z"/><path class="st5" d="M1214.7 557h600.9l-310.7-342.6z"/><path class="st7" d="M1524.3 520.5h600.9l-310.6-342.6z"/><path class="st8" d="M1845.9 212.5c-5.1 0-5.1 7.7-10.1 7.7s-5.1-7.7-10.1-7.7-5.1 7.7-10.1 7.7-5.1-7.7-10.1-7.7-5.1 7.7-10.1 7.7-5.1-7.7-10.1-7.7l29.3-34.6 31.3 34.6z"/><path class="st7" d="M1297.2 517.8h744.6l-385-424.5z"/><path class="st8" d="M1734.5 179c-12.5 0-12.5 19.2-25.1 19.2s-12.5-19.2-25-19.2-12.5 19.2-25.1 19.2-12.5-19.2-25-19.2-12.5 19.2-25 19.2-12.5-19.2-25-19.2l72.6-85.7 77.6 85.7z"/><path class="st6" d="M1442.3 242.7h3.9c.7 0 1.4-.6 1.4-1.3 0-.7-.6-1.4-1.3-1.4h.1c-2.3 0-4.2-1.9-4.2-4.2s1.9-4.2 4.2-4.2h26.2c2.3 0 4.2 1.9 4.2 4.2 0 2.3-1.9 4.2-4.2 4.2h-.6c-.7 0-1.4.6-1.4 1.3 0 .7.6 1.4 1.3 1.4h16.4c2.6 0 4.7 2.1 4.7 4.6 0 2.6-2.1 4.7-4.7 4.7h-46c-2.6 0-4.7-2.1-4.7-4.7.1-2.5 2.2-4.6 4.7-4.6z"/><path class="st9 st2" d="M1164.8 166.3h3.9c.7 0 1.4-.6 1.4-1.3 0-.7-.6-1.4-1.3-1.4h.1c-2.3 0-4.2-1.9-4.2-4.2s1.9-4.2 4.2-4.2h26.2c2.3 0 4.2 1.9 4.2 4.2 0 2.3-1.9 4.2-4.2 4.2h-.6c-.7 0-1.4.6-1.4 1.3 0 .7.6 1.4 1.3 1.4h16.4c2.6 0 4.7 2.1 4.7 4.7s-2.1 4.6-4.7 4.6h-46c-2.6 0-4.7-2.1-4.7-4.6 0-2.7 2.1-4.7 4.7-4.7z"/><path class="st10" d="M327.9 362.5l-10 18.7h21.2zm63.2 1.8l-10 18.8h21.2zm-31.3 2.4l-10 18.8H371z"/><path class="st10" d="M343.7 366.7l-10 18.8h21.2zm31.9 5.2l-10 18.7h21.2zm-61.9-1.9l-10 18.8h21.2z"/><path class="st10" d="M297.5 370l-10 18.8h21.2z"/><path class="st10" d="M281.7 373.5l-10 18.7h21.2zm120.2-5l-10 18.7h21.2z"/><path class="st10" d="M411.9 372.7l-10 18.7h21.2z"/><path class="st10" d="M422.5 373.5l-10 18.7h21.2z"/><path class="st10" d="M438.4 370l-9.9 18.8h21.1z"/><path class="st10" d="M449 376.1l-10 18.8h21.2zm22.6-4.2l-10 18.7h21.2z"/><path class="st10" d="M488 378.2L478 397h21.1z"/><path class="st10" d="M479.5 375.4l-10 18.7h21.1zm38.8-.2l-10 18.8h21.2z"/><path class="st10" d="M532.8 382.9l-10 18.7H544z"/><path class="st10" d="M547.3 388.8l-10 18.7h21.2z"/><path class="st10" d="M562.6 388.8l-10 18.7h21.2zm26.9 0l-10 18.7h21.2z"/><path class="st10" d="M602 398.1l-10 18.8h21.2z"/><path class="st10" d="M616.3 399.8l-10 18.7h21.2zm-40.5-5.7l-10 18.8H587z"/><path class="st10" d="M628.2 407.5l-10 18.8h21.2z"/><path class="st10" d="M643 411.9l-10 18.8h21.2z"/><path class="st10" d="M657.5 411.9l-10 18.8h21.2z"/><path class="st10" d="M672.3 407.5l-10 18.8h21.2z"/><path class="st10" d="M688.8 407.5l-10 18.8H700z"/><path class="st10" d="M699.3 411.9l-9.9 18.8h21.1z"/><path class="st10" d="M712.2 416.9l-10 18.7h21.2z"/><path class="st10" d="M722.8 418.8l-10 18.8H734z"/><path class="st10" d="M738.3 417.8l-10 18.8h21.2z"/><path class="st10" d="M752.6 419.5l-9.9 18.7h21.1z"/><path class="st10" d="M764.5 427.2l-10 18.8h21.2z"/><path class="st10" d="M779.4 431.6l-10 18.8h21.2z"/><path class="st10" d="M793.8 431.6l-9.9 18.8H805z"/><path class="st10" d="M808.6 427.2l-10 18.8h21.2z"/><path class="st10" d="M825.1 427.2l-10 18.8h21.2z"/><path class="st10" d="M835.7 431.6l-10 18.8h21.2z"/><path class="st10" d="M848.5 436.6l-10 18.8h21.2z"/><path class="st10" d="M859.1 438.5l-10 18.8h21.2zm-356.8-70.1l-14.8 25.7h31.4zm-44.4 11l-9.9 18.7h21.1zm428.5 53.9l-10 18.8h21.2zm63.8 1.5l-10 18.8h21.2zm-31.9 2.8l-10 18.7h21.2z"/><path class="st10" d="M902.2 437.6l-10 18.7h21.2zm31.9 5.1l-9.9 18.8h21.1zm-61.9-1.8l-9.9 18.7h21.2zm93.1-1.4l-10 18.8h21.2z"/><path class="st10" d="M981 444.4l-10 18.7h21.2z"/><path class="st10" d="M997 440.9l-10 18.7h21.2z"/><path class="st10" d="M1007.6 447l-10 18.7h21.2zm22.5-.3l-10 18.8h21.2z"/><path class="st10" d="M1044.8 448.8l-10 18.7h21.2zm32-2.7l-10 18.7h21.2z"/><path class="st10" d="M1091.3 453.7l-10 18.8h21.2z"/><path class="st10" d="M1105.8 459.6l-10 18.8h21.2zm-45-20.4L1046 465h31.4zm-43.2 9.7l-9.9 18.8h21.1zM83.3 364.6l-10 18.7h21.2zm61.9.8l-10 18.7h21.2zm-30.1 3.4l-9.9 18.8h21.1z"/><path class="st10" d="M99.1 368.8l-10 18.8h21.2zm30.1 3.6l-10 18.8h21.2zm-61.4-.2l-10 18.8H79z"/><path class="st10" d="M52.8 372.1l-9.9 18.7h21.2z"/><path class="st10" d="M37.1 375.6l-10 18.7h21.2z"/><path class="st10" d="M23.8 370.1l-9.9 18.7H35z"/><path class="st10" d="M10 377.6L0 396.4h21.2zm152.1-5.5l-10 18.7h21.2z"/><path class="st10" d="M177.8 375.6l-9.9 18.7H189z"/><path class="st10" d="M193.8 372.1l-10 18.7H205z"/><path class="st10" d="M204.4 378.2l-10 18.8h21.2zm22.6-4.3l-10 18.8h21.2z"/><path class="st10" d="M241.7 379.3l-10 18.8h21.2zm32-2l-10 18.8h21.2z"/><path class="st10" d="M257.7 370.4l-14.8 25.8h31.4zm-44.4 11.1l-10 18.7h21.2zm979.6 74.7l-10 18.7h21.2zm63.6 1.8l-10 18.8h21.2zm-31.7 2.4l-10 18.8h21.2z"/><path class="st10" d="M1206.2 459.9l-10 18.8h21.2z"/><path class="st10" d="M1215.4 465.9l-10 18.8h21.2zm25.3-.4l-10 18.8h21.1zm-61.9-1.8l-10 18.7h21.1z"/><path class="st10" d="M1162.5 463.7l-10 18.7h21.2z"/><path class="st10" d="M1146.8 467.2l-10 18.7h21.1zm125-5l-10 18.7h21.2z"/><path class="st10" d="M1287.5 467.2l-10 18.7h21.2z"/><path class="st10" d="M1303.5 463.7l-10 18.7h21.2z"/><path class="st10" d="M1314.1 469.8l-10 18.7h21.2zm22.5-4.3l-10 18.8h21.2z"/><path class="st10" d="M1353 471.9l-10 18.8h21.2zm30.3-3l-10 18.8h21.2z"/><path class="st10" d="M1397.8 476.6l-10 18.7h21.2z"/><path class="st10" d="M1412.3 482.4l-10 18.8h21.2z"/><path class="st10" d="M1427.6 482.4l-10 18.8h21.2zm27 0l-10 18.8h21.2z"/><path class="st10" d="M1467 491.8l-10 18.8h21.2z"/><path class="st10" d="M1474.7 491.5l-10 18.7h21.2zm-33.9-3.7l-10 18.8h21.2zm-73.5-25.8l-14.8 25.8h31.4zm-44.3 11.1l-10 18.7h21.2z"/><path class="st10" d="M1482.3 487.4l-10 18.8h21.2z"/><path class="st10" d="M1498.3 483.9l-10 18.8h21.2z"/><path class="st10" d="M1508.9 490l-10 18.8h21.2zm22.5-4.2l-9.9 18.7h21.2z"/><path class="st10" d="M1547.8 492.2l-10 18.7h21.2zm30.4-3l-10 18.7h21.2z"/><path class="st10" d="M1592.7 496.8l-10 18.8h21.2z"/><path class="st10" d="M1607.2 502.7l-10 18.8h21.2zm-45-20.4l-14.8 25.7h31.4zm-44.4 11l-10 18.8h21.2zM1138.7 471l-10 18.8h21.2z"/><path class="st10" d="M1122.7 464.1l-14.8 25.8h31.4z"/><path class="st10" d="M0 396.4l22.6-15.2 14.2 7.6 37.6-5.5h84.9l15.1 7.5 21.1-6.2 21.2 12.4 8.9-12 22.2 9.3 14.3-3.5 37.1-5.8h12.9l17.5-8.9 24.8 6.8 22.9 3.6 16.1-13 36.2 15.3 21.1-3.8 8.9 7 13.7-8.7 18.8 8.9 10.7-6.7 56.8 19.3h15.3l18.2-1.3 47.4 22.8h14.8l20.5-5 12.3 1.5 36.4 12.8 16.9-4.9 19.7 4.9 20 10.4 25-2.9 20.7-2.1 47.2 16.3 10.5-11.2 22.6 6 28.1 3.8 15.3-7.9 27.1 11.6 17.5-2.3 30.7 1.6 21.3 2.6 35.3-1.1 45.4 22 10.1 3.5 26.3-9.3 11.9 2.6 18.5-11.3 31.9 8.7 15.9 3.8 13.7-10.6 33.1 12.6h26.6l11.9 1.9 10.6-3.9 18.8 5.5 14.3-6.7 34.7 12.6 18.5 5.4 28.5 2.2 12.9-1.7 16.1 6.8 19.3-7.7 21.2 7.7 10.6-5.1 19.6 8.5 11.4-9.4 19.6 4.2 6.7 5.2 23.1 9.5 26.9 12.1h21.2l19.3 1.5h33.8l35.5-9.4 28.1 3.8 19.7 3.8 13-9.1 32.3 12.9 37-2 13.6.9 18.1 4.6 7.9 4.8v153.8H0z"/><g class="st11"><path class="st12" d="M-9 402.3l-10 18.8H2.2z"/><path class="st12" d="M6.9 398.8L-3 417.6h21.1z"/><path class="st12" d="M17.5 404.9l-9.9 18.8h21.1zm22.6-4.2l-10 18.7h21.2z"/><path class="st12" d="M54.1 405.4l-10 18.8h21.2zm32.7-1.3l-10 18.7H98z"/><path class="st12" d="M101.3 411.7l-10 18.8h21.2z"/><path class="st12" d="M115.8 417.6l-10 18.8H127z"/><path class="st12" d="M131.1 417.6l-10 18.8h21.2zm26.9 0l-9.9 18.8h21.1z"/><path class="st12" d="M170.5 427l-10 18.7h21.2z"/><path class="st12" d="M184.8 428.6l-10 18.8H196zm-40.6-5.7l-9.9 18.8h21.2z"/><path class="st12" d="M196.7 436.4l-10 18.7h21.2z"/><path class="st12" d="M211.5 440.8l-9.9 18.7h21.1z"/><path class="st12" d="M226 440.8l-10 18.7h21.2z"/><path class="st12" d="M240.8 436.4l-10 18.7H252z"/><path class="st12" d="M257.3 436.4l-10 18.7h21.2z"/><path class="st12" d="M267.9 440.8l-10 18.7H279z"/><path class="st12" d="M280.7 445.7l-10 18.8h21.2z"/><path class="st12" d="M291.3 447.6l-10 18.8h21.2z"/><path class="st12" d="M306.8 446.7l-10 18.7H318z"/><path class="st12" d="M321.1 448.3l-10 18.8h21.2z"/><path class="st12" d="M333 456.1l-10 18.7h21.2z"/><path class="st12" d="M347.9 460.5l-10 18.7h21.2z"/><path class="st12" d="M362.3 460.5l-9.9 18.7h21.1z"/><path class="st12" d="M377.1 456.1l-10 18.7h21.2z"/><path class="st12" d="M393.6 456.1l-10 18.7h21.2z"/><path class="st12" d="M404.2 460.5l-10 18.7h21.2z"/><path class="st12" d="M417 465.4l-10 18.8h21.2z"/><path class="st12" d="M427.6 467.3l-10 18.8h21.2zM70.8 397.2L56 422.9h31.4zm-44.4 11L16.5 427h21.1zm428.5 54l-10 18.7h21.2zm63.5 2.2l-10 18.7h21.2zm-31.6 2l-10 18.8H498z"/><path class="st12" d="M470.7 466.4l-10 18.8h21.2zm31.9 5.1l-9.9 18.8h21.1zm-61.8-1.8l-10 18.8H452zm93-1l-10 18.8H545z"/><path class="st12" d="M549.5 473.2l-10 18.8h21.2z"/><path class="st12" d="M565.5 469.7l-10 18.8h21.2z"/><path class="st12" d="M576.1 475.8l-10 18.8h21.2z"/><path class="st12" d="M596.5 475.2l-10 18.8h21.2z"/><path class="st12" d="M605.5 478.4l-10 18.7h21.2z"/><path class="st12" d="M615 477.9l-10 18.8h21.2zm30.3-3l-10 18.8h21.2z"/><path class="st12" d="M659.8 482.6l-10 18.7H671z"/><path class="st12" d="M674.3 488.5l-10 18.7h21.2zm-45-20.5l-14.8 25.8h31.4zM585 479.1l-10 18.7h21.2zm176.4 5.9l-10 18.8h21.2zm63.8 2.1l-10 18.8h21.2zm-31.9 2.1l-10 18.8h21.2z"/><path class="st12" d="M777.2 489.2l-10 18.8h21.2zm32 5.2l-10 18.7h21.1zm-62-1.9l-9.9 18.8h21.2z"/><path class="st12" d="M731 492.5l-10 18.8h21.2z"/><path class="st12" d="M715.2 496l-9.9 18.8h21.2zm125.1-3.5l-10 18.8h21.2z"/><path class="st12" d="M856 496l-10 18.8h21.2z"/><path class="st12" d="M872 492.5l-10 18.8h21.2z"/><path class="st12" d="M882.6 498.6l-10 18.8h21.2zm22.5-4.2l-10 18.7h21.2z"/><path class="st12" d="M921.5 500.8l-10 18.7h21.2zm30.3-3l-10 18.7H963z"/><path class="st12" d="M966.3 505.4l-10 18.8h21.2zm-30.5-14.5L921 516.6h31.4zm-44.3 11l-10 18.8h21.2zm-184.3-2.1l-10 18.8h21.2z"/><path class="st12" d="M691.2 493l-14.8 25.7h31.4z"/><path class="st12" d="M-430 425.2l21.1-15.1 14.2 7.6 37.6-5.6h84.9l15.1 7.6 21.1-6.3 21.2 12.4 8.9-12 22.1 9.4 14.4-3.5 37.1-5.9h12.9l17.5-8.9 24.8 6.8 22.9 3.7 16-13.1 36.3 15.3 21.1-3.8 8.9 7.1 13.7-8.8 18.8 9 10.6-6.8 56.9 19.3h15.3l18.2-1.3 47.4 22.8h14.8l20.4-5 12.4 1.5 36.4 12.9 16.9-5 19.7 5 20 10.3 25-2.9 20.7-2 47.2 16.2 10.6-11.2 22.5 6 31.3 4.3 10.7-12 28.5 15.3 17.5-2.4 30.6 1.7 21.4 2.5 35.4-1.1 45.2 22.1 10.2 3.5 26.3-9.4 13.6 2.6 10.9-7.5 37.8 4.9 15 2.1 15.3-6.2 32.4 10h26.6l11.9 1.8 10.6-3.9 18.8 5.6 14.3-6.8 34.7 12.7 18.5 5.3 28.5 2.3 12.7 1.7 16.3 3.4 19.3-7.7 21.2 7.7 10.6-5.1 19.6 8.5 11.4-9.4 19.6 4.1 6.7 5.3 23.1 9.5 26.9 12h21.2l19.3 1.5h33.8l35.5-9.3 28.1 3.8 19.7 3.7 13-9.1 32.3 13 37-2.1 13.6.9 18.1 4.7 7.9 4.7v153.8H-430z"/></g></g></g></svg>